<?xml version="1.0" standalone="no"?>
<!DOCTYPE svg PUBLIC "-//W3C//DTD SVG 20010904//EN"
 "http://www.w3.org/TR/2001/REC-SVG-20010904/DTD/svg10.dtd">
<svg version="1.0" xmlns="http://www.w3.org/2000/svg"
 width="179.000000pt" height="179.000000pt" viewBox="0 0 179.000000 179.000000"
 preserveAspectRatio="xMidYMid meet">
<metadata>
Created by potrace 1.11, written by Peter Selinger 2001-2013
</metadata>
<g transform="translate(0.000000,179.000000) scale(0.100000,-0.100000)"
fill="#000000" stroke="none">
<path d="M785 1749 c-124 -29 -140 -35 -230 -81 -81 -41 -149 -92 -215 -159
-55 -56 -66 -69 -106 -125 -22 -30 -93 -167 -95 -181 -1 -5 -5 -18 -10 -31
-10 -25 -15 -49 -30 -137 -10 -59 -10 -251 0 -270 3 -5 7 -18 8 -27 6 -36 10
-53 18 -70 4 -10 8 -29 9 -42 0 -13 4 -22 9 -19 6 4 11 -15 10 -44 -1 -7 3
-11 7 -8 9 6 32 -44 25 -55 -3 -5 0 -12 6 -16 8 -4 9 -3 5 4 -4 7 -5 12 -2 12
10 0 37 -61 31 -70 -3 -6 1 -7 9 -4 15 6 22 -11 17 -38 0 -5 5 -7 12 -5 6 1
11 -4 10 -11 -2 -6 2 -12 8 -12 15 0 39 -26 32 -34 -4 -3 2 -6 11 -6 12 0 16
-5 13 -14 -4 -9 -1 -13 6 -10 15 5 59 -41 49 -51 -4 -4 -2 -5 3 -4 6 2 24 -4
40 -14 17 -9 26 -17 20 -17 -5 0 4 -7 20 -16 58 -28 75 -41 67 -49 -4 -5 -1
-5 5 -1 7 4 23 0 35 -8 12 -9 32 -16 43 -16 25 -1 57 -24 47 -36 -4 -4 1 -2
11 5 11 9 17 9 17 3 0 -6 6 -9 14 -6 7 3 20 -2 29 -10 18 -19 31 -21 21 -4 -5
8 -2 9 10 5 10 -4 24 -7 32 -7 9 0 12 -5 8 -13 -5 -9 -4 -9 6 0 8 7 21 8 34 3
11 -4 38 -6 59 -5 24 2 35 0 31 -7 -5 -7 -2 -8 6 -3 7 4 36 9 64 11 28 2 63 5
78 7 18 3 25 0 21 -7 -4 -6 2 -4 13 5 29 24 48 34 40 21 -4 -7 -3 -12 3 -12 5
0 13 5 16 10 4 6 10 8 15 5 5 -3 12 0 16 6 4 8 9 7 15 -2 7 -11 9 -10 9 3 0
11 5 15 14 12 8 -3 17 0 21 5 3 6 11 9 16 6 5 -4 9 -1 9 5 0 6 4 9 9 5 5 -3
17 2 25 11 9 8 16 12 16 8 0 -4 10 1 22 12 13 12 18 13 13 4 -6 -11 -2 -10 12
3 12 10 28 15 39 11 14 -4 16 -3 5 4 -11 8 -10 12 5 20 11 5 26 7 34 5 12 -4
13 -3 1 5 -11 8 -9 12 10 23 13 7 26 11 27 10 2 -2 7 1 10 5 4 4 0 4 -8 -1
-12 -7 -13 -6 -2 6 7 8 18 14 25 14 7 1 11 6 10 13 -2 7 4 12 13 12 8 0 13 4
10 8 -6 10 29 42 47 42 8 0 7 4 -3 10 -13 9 -13 10 0 10 15 0 38 28 52 63 6
14 4 17 -10 13 -104 -30 -143 -38 -215 -40 -144 -5 -244 15 -363 76 -164 82
-265 234 -259 393 4 101 5 106 18 99 9 -5 9 -4 1 5 -13 15 -7 51 9 51 6 0 8 3
4 6 -3 4 0 19 9 35 8 16 15 32 16 36 1 5 10 17 20 27 10 11 18 24 18 28 0 5 5
6 10 3 6 -3 10 0 10 7 0 7 21 27 48 45 37 24 50 29 61 19 12 -9 13 -8 8 8 -6
14 -4 17 9 12 9 -3 21 -3 27 1 16 10 47 11 42 2 -3 -4 4 -5 15 -2 11 3 17 9
14 14 -3 5 2 6 10 3 9 -3 13 -11 9 -17 -4 -6 -1 -7 8 -1 21 13 39 14 39 2 0
-7 5 -6 14 1 8 7 17 8 20 3 10 -17 65 -20 71 -4 4 12 8 12 22 1 10 -9 14 -9
10 -2 -9 14 22 55 35 47 4 -3 5 3 1 12 -4 10 -2 15 3 11 5 -3 11 6 12 20 1 14
8 33 15 41 8 11 8 14 0 9 -8 -5 -11 1 -9 20 4 35 -16 112 -39 149 -27 43 -87
104 -103 104 -7 0 -11 4 -8 9 7 11 -102 65 -164 82 -74 20 -234 19 -325 -2z"/>
<path d="M353 275 c0 -8 4 -12 9 -9 5 3 6 10 3 15 -9 13 -12 11 -12 -6z"/>
</g>
</svg>
