<?xml version="1.0" encoding="UTF-8"?>
<svg width="220px" height="260px" viewBox="0 0 220 260" version="1.1" xmlns="http://www.w3.org/2000/svg" xmlns:xlink="http://www.w3.org/1999/xlink">
    <!-- Generator: Sketch 52.5 (67469) - http://www.bohemiancoding.com/sketch -->
    <title>Group 6</title>
    <desc>Created with Sketch.</desc>
    <defs>
        <linearGradient x1="-165.256567%" y1="202.980581%" x2="523.411347%" y2="-303.329681%" id="linearGradient-1">
            <stop stop-color="#4070B7" offset="0%"></stop>
            <stop stop-color="#6BA6F1" offset="100%"></stop>
        </linearGradient>
        <linearGradient x1="756.910781%" y1="-3926.17769%" x2="-5351.60207%" y2="30431.3086%" id="linearGradient-2">
            <stop stop-color="#6BA6F1" offset="0%"></stop>
            <stop stop-color="#6DA5FB" offset="43.48%"></stop>
            <stop stop-color="#46509C" offset="100%"></stop>
        </linearGradient>
        <linearGradient x1="148.924967%" y1="-505.351061%" x2="-1797.3562%" y2="10422.9396%" id="linearGradient-3">
            <stop stop-color="#6BA6F1" offset="0%"></stop>
            <stop stop-color="#6DA5FB" offset="43.48%"></stop>
            <stop stop-color="#46509C" offset="100%"></stop>
        </linearGradient>
        <linearGradient x1="201.600045%" y1="-801.304808%" x2="-2648.78896%" y2="15206.1589%" id="linearGradient-4">
            <stop stop-color="#6BA6F1" offset="0%"></stop>
            <stop stop-color="#6DA5FB" offset="43.48%"></stop>
            <stop stop-color="#46509C" offset="100%"></stop>
        </linearGradient>
        <linearGradient x1="176.671553%" y1="-110.065773%" x2="-87.5664823%" y2="191.581649%" id="linearGradient-5">
            <stop stop-color="#007483" offset="0%"></stop>
            <stop stop-color="#3C6382" offset="100%"></stop>
        </linearGradient>
        <linearGradient x1="10.1393432%" y1="9.80630071%" x2="79.714096%" y2="126.073886%" id="linearGradient-6">
            <stop stop-color="#00A193" offset="0%"></stop>
            <stop stop-color="#82CCDD" offset="100%"></stop>
        </linearGradient>
        <linearGradient x1="0.759835694%" y1="30.5149688%" x2="133.270527%" y2="111.467346%" id="linearGradient-7">
            <stop stop-color="#15B78F" offset="0%"></stop>
            <stop stop-color="#82CCDD" offset="100%"></stop>
        </linearGradient>
        <linearGradient x1="18.6828122%" y1="14.0527427%" x2="87.7772633%" y2="74.612529%" id="linearGradient-8">
            <stop stop-color="#008A8F" offset="0%"></stop>
            <stop stop-color="#82CCDD" offset="100%"></stop>
        </linearGradient>
        <filter x="-7.5%" y="-7.0%" width="115.0%" height="114.0%" filterUnits="objectBoundingBox" id="filter-9">
            <feOffset dx="0" dy="2" in="SourceAlpha" result="shadowOffsetOuter1"></feOffset>
            <feGaussianBlur stdDeviation="2" in="shadowOffsetOuter1" result="shadowBlurOuter1"></feGaussianBlur>
            <feColorMatrix values="0 0 0 0 0   0 0 0 0 0   0 0 0 0 0  0 0 0 0.5 0" type="matrix" in="shadowBlurOuter1" result="shadowMatrixOuter1"></feColorMatrix>
            <feMerge>
                <feMergeNode in="shadowMatrixOuter1"></feMergeNode>
                <feMergeNode in="SourceGraphic"></feMergeNode>
            </feMerge>
        </filter>
        <linearGradient x1="-165.256338%" y1="202.980706%" x2="523.41141%" y2="-303.330703%" id="linearGradient-10">
            <stop stop-color="#4070B7" offset="0%"></stop>
            <stop stop-color="#6BA6F1" offset="100%"></stop>
        </linearGradient>
        <linearGradient x1="757.662226%" y1="-3933.78929%" x2="-5356.443%" y2="30489.1712%" id="linearGradient-11">
            <stop stop-color="#6BA6F1" offset="0%"></stop>
            <stop stop-color="#6DA5FB" offset="43.48%"></stop>
            <stop stop-color="#46509C" offset="100%"></stop>
        </linearGradient>
        <linearGradient x1="148.959165%" y1="-505.014155%" x2="-1798.65025%" y2="10416.1893%" id="linearGradient-12">
            <stop stop-color="#6BA6F1" offset="0%"></stop>
            <stop stop-color="#6DA5FB" offset="43.48%"></stop>
            <stop stop-color="#46509C" offset="100%"></stop>
        </linearGradient>
        <linearGradient x1="201.577482%" y1="-801.489477%" x2="-2648.50116%" y2="15208.6724%" id="linearGradient-13">
            <stop stop-color="#6BA6F1" offset="0%"></stop>
            <stop stop-color="#6DA5FB" offset="43.48%"></stop>
            <stop stop-color="#46509C" offset="100%"></stop>
        </linearGradient>
        <linearGradient x1="176.671267%" y1="-110.066402%" x2="-574.426825%" y2="747.378901%" id="linearGradient-14">
            <stop stop-color="#82CCDD" offset="0%"></stop>
            <stop stop-color="#3C6382" offset="35.18%"></stop>
        </linearGradient>
        <linearGradient x1="10.1396064%" y1="9.80625228%" x2="79.7138677%" y2="126.074134%" id="linearGradient-15">
            <stop stop-color="#3C6382" offset="0%"></stop>
            <stop stop-color="#82CCDD" offset="100%"></stop>
        </linearGradient>
        <linearGradient x1="-17.0699259%" y1="19.6212932%" x2="133.27026%" y2="111.466855%" id="linearGradient-16">
            <stop stop-color="#3C6382" offset="11.86%"></stop>
            <stop stop-color="#82CCDD" offset="100%"></stop>
        </linearGradient>
        <linearGradient x1="18.6828565%" y1="14.0995012%" x2="87.7769932%" y2="74.6266898%" id="linearGradient-17">
            <stop stop-color="#3C6382" offset="0%"></stop>
            <stop stop-color="#82CCDD" offset="100%"></stop>
        </linearGradient>
    </defs>
    <g id="Page-1" stroke="none" stroke-width="1" fill="none" fill-rule="evenodd">
        <g id="Artboard" transform="translate(-481.000000, -72.000000)">
            <g id="Group-6" transform="translate(478.000000, 74.000000)">
                <g id="Group-5-Copy" transform="translate(33.000000, 0.000000)">
                    <g id="Group-3" transform="translate(80.000000, 86.000000) scale(-1, -1) rotate(180.000000) translate(-80.000000, -86.000000) ">
                        <g id="Logo-Green" opacity="0.302408854" transform="translate(0.000000, 1.000000)">
                            <g id="Group">
                                <path d="M119.5208,51.8583913 C121.7424,52.3193478 122.77,52.6750435 123.0128,52.7576087 C123.0128,52.7576087 86.1888,30.5135217 53.8436,51.0941739 L72.0724,58.9785652 C81.9808,50.8656522 96.9376,46.4779565 119.5208,51.8583913 Z" id="Path" fill="url(#linearGradient-1)"></path>
                                <path d="M94.508,52.8221739 C94.508,52.8221739 94.2188,52.9411304 93.6996,53.177087 C93.9704,53.0565652 94.2388,52.9325217 94.508,52.8221739 Z" id="Path" fill="url(#linearGradient-2)"></path>
                                <path d="M93.6996,53.177087 C92.9936,53.4885652 92.2884,53.825087 91.586,54.201913 C92.4844,53.7433043 93.1976,53.4048261 93.6996,53.177087 Z" id="Path" fill="url(#linearGradient-3)"></path>
                                <path d="M94.508,52.8221739 C94.508,52.8221739 94.224,52.9383913 93.7232,53.166913 C93.9844,53.0514783 94.2444,52.929 94.508,52.8221739 Z" id="Path"></path>
                                <path d="M91.5648,54.2128696 C91.5704,54.2093478 91.578,54.2046522 91.586,54.201913 C92.0572,53.9495217 92.5328,53.7331304 93.008,53.5132174 C92.9524,53.5308261 92.896,53.5496087 92.844,53.5676087 C92.414,53.7738261 91.9896,53.9878696 91.5648,54.2128696 Z" id="Path" fill="url(#linearGradient-4)"></path>
                                <g id="Path">
                                    <path d="M119.3252,10.5123913 C112.48,4.91165217 104.9032,2.90426087 99.4164,1.52843478 C97.4416,1.14104348 95.176,0.796695652 92.7004,0.550173913 C85.8176,0.118173913 78.7708,0.467217391 71.672,1.72213043 C46.632,6.147 26.0368,20.6350435 13.4496,40.1536957 C2.232,57.5463913 -2.6304,78.939 1.4028,100.773391 C3.3704,111.426261 7.2856,121.251522 12.7184,129.972522 C16.852,136.610609 21.8664,142.608522 27.5776,147.835957 C33.4716,153.228522 40.1176,157.791913 47.2896,161.409522 C48.168,161.853652 49.0624,162.27587 49.9572,162.692609 L55.682,165.046696 C0.0648,119.146696 30.9704,72.0966522 46.624,56.502 C80.3644,27.0105652 122.9468,52.7834348 122.9468,52.7834348 C132.5468,47.7723913 133.9312,40.7915217 133.2228,34.4136522 C132.9176,23.0994783 125.1656,14.9552609 119.3252,10.5123913 Z" fill="url(#linearGradient-5)"></path>
                                    <path d="M145.738,136.677522 C121.5328,140.954087 94.6508,133.527913 80.8752,115.470783 C80.9504,115.491913 81.0024,115.506391 81.0024,115.506391 C69.0312,99.5689565 72.2796,83.7289565 74.578,74.894087 C78.8664,64.0353913 85.0432,57.8950435 91.5724,54.3881739 C91.9972,54.1612174 93.7072,52.8229565 99.254,51.5703913 C80.8748,53.4963913 61.906,68.4555652 53.3216,81.8761304 C42.1316,99.372913 39.13,124.288043 45.9336,159.230348 L47.2896,161.40913 C63.748,169.714174 83.0204,172.987043 102.656,169.517348 C127.1324,165.195 147.3428,151.245391 159.9996,132.391957 C155.5296,134.327739 150.7612,135.790043 145.738,136.677522 Z" fill="url(#linearGradient-6)"></path>
                                    <path d="M145.738,136.677522 C121.5328,140.954087 95.4192,133.563522 81.6432,115.506391 C81.7188,115.528304 81.6432,115.506391 81.6432,115.506391 C69.672,99.5689565 72.9204,83.7289565 75.2188,74.894087 C79.5148,64.022087 85.0512,57.7048696 91.586,54.201913 C80.356,59.945087 39.3844,80.3273478 65.0564,130.145478 L67.434,133.804565 C96.3516,170.290565 160,132.391565 160,132.391565 C155.5296,134.327739 150.7612,135.790043 145.738,136.677522 Z" fill="url(#linearGradient-7)"></path>
                                    <path d="M78.88,42.2323043 C10.364,49.3411304 12.7184,129.97213 12.7184,129.97213 C16.852,136.610217 21.8664,142.60813 27.5776,147.835565 C27.5776,147.835565 37.546,158.173435 55.682,165.045913 C26.8016,80.6564348 75.4888,55.6078696 98.8508,51.7151739 C111.672,49.0801304 122.2232,52.5412174 122.9468,52.7826522 C122.9468,52.7830435 102.658,40.1783478 78.88,42.2323043 Z" fill="url(#linearGradient-8)"></path>
                                </g>
                            </g>
                        </g>
                        <g id="Group" filter="url(#filter-9)" transform="translate(0.000000, 0.000000)">
                            <path d="M119.263531,51.421275 C121.480289,51.8860031 122.505066,52.2443049 122.748092,52.327475 C122.748092,52.327475 86.0097583,29.9208036 53.740458,50.6514584 L71.9270564,58.5944056 C81.8116845,50.4212623 96.7336021,46.0006304 119.263531,51.421275 Z" id="Path" fill="url(#linearGradient-10)"></path>
                            <path d="M94.6564885,52.6425892 C94.6564885,52.6425892 94.4373295,52.8261451 94.0458015,53.1860822 C94.2504707,53.0019283 94.4524231,52.8123934 94.6564885,52.6425892 Z" id="Path" fill="url(#linearGradient-11)"></path>
                            <path d="M93.4351145,52.6153846 C92.8228085,52.9790076 92.2111964,53.3709175 91.6030534,53.8111888 C92.381185,53.2764759 93.0007762,52.8809161 93.4351145,52.6153846 Z" id="Path" fill="url(#linearGradient-12)"></path>
                            <path d="M94.6564885,52.649764 C94.6564885,52.649764 94.4356348,52.8291346 94.0458015,53.1789073 C94.2492603,53.0013304 94.4520979,52.814785 94.6564885,52.649764 Z" id="Path"></path>
                            <path d="M91.6030534,53.8111888 C91.6081298,53.8085136 91.6142214,53.8038321 91.6213284,53.8021601 C92.0199924,53.5864739 92.4217023,53.4012179 92.8244275,53.2132867 C92.7767096,53.228669 92.7293302,53.24472 92.6846582,53.2601023 C92.3218671,53.434992 91.9627987,53.6179073 91.6030534,53.8111888 Z" id="Path" fill="url(#linearGradient-13)"></path>
                            <g id="Path">
                                <path d="M119.3268,10.2101904 C112.48,4.59699771 104.9048,2.58500229 99.4164,1.20523624 C97.4412,0.818525229 95.1756,0.472603211 92.702,0.224731651 C85.8188,-0.207474771 78.772,0.141584862 71.6732,1.40055275 C46.6312,5.8347867 26.0376,20.356844 13.45,39.9198716 C2.2328,57.3524587 -2.6304,78.7925642 1.402,100.677819 C3.37,111.355514 7.2856,121.202133 12.7184,129.942743 C16.8528,136.596055 21.8656,142.608901 27.578,147.848326 C33.4716,153.252083 40.1176,157.826725 47.2896,161.453023 C48.1688,161.897388 49.0624,162.320573 49.958,162.738268 L55.682,165.097755 C0.0648000006,119.092872 30.9704,71.9353073 46.624,56.3052798 C80.3656,26.7469885 122.9468,52.5781858 122.9468,52.5781858 C132.5468,47.5556491 133.9312,40.5587683 133.2236,34.1666628 C132.9176,22.8261468 125.1656,14.6636422 119.3268,10.2101904 Z" fill="url(#linearGradient-14)"></path>
                                <path d="M145.7376,136.664298 C121.5332,140.949888 94.6508,133.506681 80.8752,115.407743 C80.9516,115.430491 81.0032,115.44461 81.0032,115.44461 C69.032,99.4706216 72.2796,83.5942913 74.578,74.7403349 C78.8668,63.8559495 85.0436,57.7019106 91.5724,54.1866055 C91.9984,53.9595206 93.7068,52.6185826 99.2536,51.3627523 C80.8756,53.2931697 61.906,68.2870459 53.3216,81.7383922 C42.1316,99.2741284 39.13,124.246404 45.9336,159.268459 L47.2892,161.452631 C63.7476,169.776722 83.02,173.056706 102.656,169.579053 C127.1336,165.246007 147.3432,151.26558 159.9996,132.368511 C155.53,134.30795 150.7612,135.774392 145.7376,136.664298 Z" fill="url(#linearGradient-15)"></path>
                                <path d="M145.7376,136.664298 C121.5332,140.949888 95.4208,133.542764 81.644,115.44461 C81.7196,115.467358 81.644,115.44461 81.644,115.44461 C69.672,99.4706216 72.9196,83.5942913 75.2188,74.7403349 C79.5152,63.8426147 85.0516,57.5109083 91.5872,54.0007018 C80.3564,59.756656 39.3844,80.1852729 65.0564,130.117273 L67.4344,133.785144 C96.3528,170.354436 160,132.368511 160,132.368511 C155.53,134.30795 150.7612,135.774392 145.7376,136.664298 Z" fill="url(#linearGradient-16)"></path>
                                <path d="M78.8804,42.0032477 C10.364,49.1272018 12.7184,129.942351 12.7184,129.942351 C16.8528,136.595663 21.8656,142.608509 27.578,147.847933 C27.578,147.847933 37.5456,158.207945 55.682,165.09697 C26.802,80.5151147 75.4884,55.4094908 98.8508,51.5074748 C111.672,48.8663876 122.224,52.335805 122.9468,52.5774014 C122.9468,52.5777936 106.1336,39.6123853 78.8804,42.0032477 Z" fill="url(#linearGradient-17)"></path>
                            </g>
                        </g>
                    </g>
                </g>
                <g id="Group-2-Copy" transform="translate(0.000000, 195.000000)" fill="#3C6382" font-family="HKGrotesk-Light, HK Grotesk" font-size="69" font-weight="300">
                    <text id="L" letter-spacing="0.93">
                        <tspan x="189.392178" y="62">L</tspan>
                    </text>
                    <text id="L" letter-spacing="0.93">
                        <tspan x="151.392178" y="62">L</tspan>
                    </text>
                    <text id="E" letter-spacing="0.129999995">
                        <tspan x="106.821963" y="62">E</tspan>
                    </text>
                    <text id="W" letter-spacing="0.129999995">
                        <tspan x="41.2152734" y="62">W</tspan>
                    </text>
                    <text id="S" letter-spacing="0.129999995">
                        <tspan x="0.511904299" y="62">S</tspan>
                    </text>
                </g>
            </g>
        </g>
    </g>
</svg>